<svg width="21" height="21" viewBox="0 0 21 21" fill="none" xmlns="http://www.w3.org/2000/svg">
<path d="M5.21913 2.74426C4.62569 2.90327 4.08456 3.2157 3.65013 3.65013C3.2157 4.08456 2.90327 4.62569 2.74426 5.21913" stroke="black" stroke-width="2" stroke-linecap="round"/>
<path d="M15.7809 2.74426C16.3743 2.90327 16.9154 3.2157 17.3499 3.65013C17.7843 4.08456 18.0967 4.62569 18.2557 5.21913" stroke="black" stroke-width="2" stroke-linecap="round"/>
<path fill-rule="evenodd" clip-rule="evenodd" d="M10.5 17.5C14.366 17.5 17.5 14.366 17.5 10.5C17.5 6.63401 14.366 3.5 10.5 3.5C6.63401 3.5 3.5 6.63401 3.5 10.5C3.5 14.366 6.63401 17.5 10.5 17.5ZM11.5 7C11.5 6.44772 11.0523 6 10.5 6C9.94772 6 9.5 6.44772 9.5 7V10.25C9.5 10.9404 10.0596 11.5 10.75 11.5H13.125C13.6773 11.5 14.125 11.0523 14.125 10.5C14.125 9.94772 13.6773 9.5 13.125 9.5H11.5V7Z" fill="black"/>
</svg>
