<svg width="25" height="25" viewBox="0 0 25 25" fill="none" xmlns="http://www.w3.org/2000/svg">
<path d="M4.16675 9.375C4.16675 6.42872 4.16675 4.95558 5.08204 4.04029C5.99733 3.125 7.47047 3.125 10.4167 3.125H14.5834C17.5297 3.125 19.0028 3.125 19.9181 4.04029C20.8334 4.95558 20.8334 6.42872 20.8334 9.375V16.4871C20.8334 19.2822 20.8334 20.6797 19.9539 21.1072C19.0745 21.5346 17.9756 20.6712 15.7777 18.9443L15.0743 18.3917C13.8385 17.4207 13.2206 16.9352 12.5001 16.9352C11.7795 16.9352 11.1616 17.4207 9.92582 18.3917L9.22244 18.9443C7.02461 20.6712 5.92569 21.5346 5.04622 21.1072C4.16675 20.6797 4.16675 19.2822 4.16675 16.4871V9.375Z" stroke="white" stroke-width="2"/>
</svg>
