<svg width="111" height="133" viewBox="0 0 111 133" fill="none" xmlns="http://www.w3.org/2000/svg">
  <!-- Background Shape -->
  <path d="M110.392 66.2354C110.392 102.816 66.2354 107.301 66.2354 132.471C29.6546 132.471 0 102.816 0 66.2354C0 29.6546 29.6546 0 66.2354 0C66.2354 22.9616 110.392 29.6546 110.392 66.2354Z" fill="#D4D4D4"/>
  
  <!-- Circle -->
  <circle cx="66.2352" cy="66.2354" r="35.3255" fill="#282625"/>

  <!-- Lock Icon - Smaller size and centered -->
  <svg x="53" y="50" width="30" height="30" fill="#FFFFFF" viewBox="0 0 448 512" xmlns="http://www.w3.org/2000/svg">
    <path d="M400 224h-24v-72C376 68.2 307.8 0 224 0S72 68.2 72 152v72H48c-26.5 0-48 21.5-48 48v192c0 26.5 21.5 48 48 48h352c26.5 0 48-21.5 48-48V272c0-26.5-21.5-48-48-48zm-104 0H152v-72c0-39.7 32.3-72 72-72s72 32.3 72 72v72z"></path>
  </svg>
</svg>
