<svg width="26" height="26" viewBox="0 0 26 26" fill="none" xmlns="http://www.w3.org/2000/svg">
<path d="M26 13C26 20.1797 20.1797 26 13 26C5.8203 26 0 20.1797 0 13C0 5.8203 5.8203 0 13 0C20.1797 0 26 5.8203 26 13Z" fill="#B9F2FF"/>
<path d="M12.0729 2.29329C12.4099 1.45969 13.5901 1.45969 13.9271 2.29329L15.0738 5.12981C15.2963 5.68003 15.9462 5.91657 16.4702 5.63806L19.1719 4.20225C19.9659 3.7803 20.87 4.53892 20.5923 5.39412L19.6475 8.30412C19.4642 8.86858 19.81 9.46753 20.3905 9.59104L23.3831 10.2278C24.2625 10.4149 24.4675 11.5772 23.705 12.0538L21.1107 13.6757C20.6075 13.9903 20.4874 14.6714 20.8527 15.1391L22.7358 17.5505C23.2893 18.2591 22.6991 19.2812 21.8087 19.1563L18.7789 18.7311C18.1912 18.6486 17.6614 19.0932 17.6405 19.6863L17.5331 22.7439C17.5015 23.6425 16.3925 24.0462 15.7907 23.3781L13.743 21.1048C13.3458 20.6639 12.6542 20.6639 12.257 21.1048L10.2093 23.3781C9.6075 24.0462 8.49846 23.6425 8.4669 22.7439L8.35948 19.6863C8.33864 19.0932 7.80884 18.6486 7.22113 18.7311L4.19127 19.1563C3.30085 19.2812 2.71074 18.2591 3.26416 17.5505L5.14731 15.1391C5.51259 14.6714 5.39249 13.9903 4.88926 13.6757L2.29496 12.0538C1.53254 11.5772 1.73748 10.4149 2.61694 10.2278L5.6095 9.59104C6.18997 9.46753 6.53578 8.86858 6.3525 8.30412L5.40766 5.39412C5.12998 4.53892 6.03408 3.7803 6.82806 4.20225L9.52978 5.63806C10.0538 5.91657 10.7037 5.68003 10.9262 5.12981L12.0729 2.29329Z" fill="white"/>
<path fill-rule="evenodd" clip-rule="evenodd" d="M11.4303 9.50426C10.7734 9.51669 10.3693 9.56538 10.0297 9.75602C9.87285 9.84408 9.7286 9.95289 9.60084 10.0795C9.22939 10.4477 9.07214 10.998 8.75765 12.0988C8.75512 12.1076 8.75262 12.1164 8.75015 12.125H10.9389L11.4303 9.50426ZM8.6084 12.8473C8.60901 12.8565 8.60978 12.8656 8.61073 12.8747C8.61764 12.9414 8.63123 13.0072 8.65131 13.0712C8.70915 13.2554 8.83733 13.4121 9.09368 13.7254L11.4522 16.6081L11.4522 16.6081C11.6095 16.8003 11.7495 16.9714 11.8772 17.1214L10.9483 12.875H8.75015C8.69999 12.875 8.65213 12.8652 8.6084 12.8473ZM13.1856 17.8972C13.1251 17.9129 13.0637 17.9208 13.0002 17.9208C12.9366 17.9208 12.8752 17.9129 12.8147 17.8972L11.7161 12.875H14.2843L13.1856 17.8972ZM14.1231 17.1214C14.2508 16.9714 14.3908 16.8003 14.5481 16.6081L14.5481 16.6081L16.9066 13.7254C17.163 13.4121 17.2911 13.2554 17.349 13.0712C17.3691 13.0072 17.3827 12.9414 17.3896 12.8747C17.3905 12.8656 17.3913 12.8565 17.3919 12.8473C17.3482 12.8652 17.3003 12.875 17.2502 12.875H15.052L14.1231 17.1214ZM17.2502 12.125C17.2477 12.1164 17.2452 12.1076 17.2427 12.0988C16.9282 10.998 16.7709 10.4477 16.3995 10.0795C16.2717 9.95289 16.1274 9.84408 15.9706 9.75602C15.631 9.56538 15.2269 9.51669 14.57 9.50426L15.0614 12.125H17.2502ZM13.8061 9.5C13.8032 9.5 13.8003 9.5 13.7974 9.5H12.2029C12.2 9.5 12.1971 9.5 12.1942 9.5L11.702 12.125H14.2983L13.8061 9.5Z" fill="#B9F2FF"/>
</svg>
