<svg width="454" height="275" viewBox="0 0 454 275" fill="none" xmlns="http://www.w3.org/2000/svg">
<path fill-rule="evenodd" clip-rule="evenodd" d="M0.804688 20C0.804688 8.9543 9.75899 0 20.8047 0H433.195C444.241 0 453.195 8.9543 453.195 20V20.5482C453.195 23.1253 450.735 25 448.158 25H423.908C412.862 25 403.908 33.9543 403.908 45V229C403.908 240.046 412.862 249 423.908 249H448.158C450.735 249 453.195 250.875 453.195 253.452V255C453.195 266.046 444.241 275 433.195 275H20.8047C9.75899 275 0.804688 266.046 0.804688 255V254.117C0.804688 251.134 3.73942 249 6.72243 249H30.9724C42.0181 249 50.9724 240.046 50.9724 229V45C50.9724 33.9543 42.0181 25 30.9724 25H6.72242C6.68343 25 6.64447 25.0001 6.60553 25.0003C3.6806 25.0171 0.804688 22.925 0.804688 20Z" fill="#C2C2C2"/>
</svg>
