<svg width="25" height="25" viewBox="0 0 25 25" fill="none" xmlns="http://www.w3.org/2000/svg">
<path d="M5.125 17.7083H10.4167C11.5673 17.7083 12.5 18.641 12.5 19.7916V10.1666C12.5 7.3382 12.5 5.92399 11.6213 5.04531C10.7426 4.16663 9.32843 4.16663 6.5 4.16663H5.125C4.18219 4.16663 3.71079 4.16663 3.41789 4.45952C3.125 4.75241 3.125 5.22382 3.125 6.16663V15.7083C3.125 16.6511 3.125 17.1225 3.41789 17.4154C3.71079 17.7083 4.18219 17.7083 5.125 17.7083Z" fill="white"/>
<path d="M19.875 17.7083H14.5833C13.4327 17.7083 12.5 18.641 12.5 19.7916V10.1666C12.5 7.3382 12.5 5.92399 13.3787 5.04531C14.2574 4.16663 15.6716 4.16663 18.5 4.16663H19.875C20.8178 4.16663 21.2892 4.16663 21.5821 4.45952C21.875 4.75241 21.875 5.22382 21.875 6.16663V15.7083C21.875 16.6511 21.875 17.1225 21.5821 17.4154C21.2892 17.7083 20.8178 17.7083 19.875 17.7083Z" fill="white"/>
</svg>
