<svg width="39" height="38" viewBox="0 0 39 38" fill="none" xmlns="http://www.w3.org/2000/svg">
<g filter="url(#filter0_d_664_1306)">
<rect x="4.5" width="30" height="30" rx="10" fill="#49A09D" fill-opacity="0.5"/>
</g>
<g filter="url(#filter1_di_664_1306)">
<path fill-rule="evenodd" clip-rule="evenodd" d="M19.5 10V5H17.5C14.6716 5 13.2574 5 12.3787 5.87868C11.5 6.75736 11.5 8.17157 11.5 11V19C11.5 21.8284 11.5 23.2426 12.3787 24.1213C13.2574 25 14.6716 25 17.5 25H21.5C24.3284 25 25.7426 25 26.6213 24.1213C27.5 23.2426 27.5 21.8284 27.5 19V13H22.5L22.4456 13H22.4456H22.4456C22.0215 13.0001 21.6094 13.0002 21.2695 12.9545C20.8863 12.903 20.449 12.7774 20.0858 12.4142C19.7226 12.051 19.597 11.6137 19.5455 11.2305C19.4998 10.8906 19.4999 10.4785 19.5 10.0544L19.5 10ZM21.5 10V5.00462C21.9116 5.01481 22.184 5.04749 22.4369 5.15224C22.8045 5.30448 23.0935 5.59351 23.6716 6.17157L26.3284 8.82843C26.9065 9.40649 27.1955 9.69552 27.3478 10.0631C27.4525 10.316 27.4852 10.5884 27.4954 11H22.5C22.0003 11 21.7262 10.9979 21.536 10.9723L21.5287 10.9713L21.5277 10.964C21.5021 10.7738 21.5 10.4997 21.5 10ZM18.3377 15.1239L21.8341 16.8421C22.7219 17.2784 22.722 18.7216 21.8341 19.1579L18.3377 20.8761C17.4677 21.3037 16.5 20.5719 16.5 19.4867V16.5133C16.5 15.4281 17.4677 14.6963 18.3377 15.1239Z" fill="#49A09D"/>
</g>
<defs>
<filter id="filter0_d_664_1306" x="0.5" y="0" width="38" height="38" filterUnits="userSpaceOnUse" color-interpolation-filters="sRGB">
<feFlood flood-opacity="0" result="BackgroundImageFix"/>
<feColorMatrix in="SourceAlpha" type="matrix" values="0 0 0 0 0 0 0 0 0 0 0 0 0 0 0 0 0 0 127 0" result="hardAlpha"/>
<feOffset dy="4"/>
<feGaussianBlur stdDeviation="2"/>
<feComposite in2="hardAlpha" operator="out"/>
<feColorMatrix type="matrix" values="0 0 0 0 0 0 0 0 0 0 0 0 0 0 0 0 0 0 0.25 0"/>
<feBlend mode="normal" in2="BackgroundImageFix" result="effect1_dropShadow_664_1306"/>
<feBlend mode="normal" in="SourceGraphic" in2="effect1_dropShadow_664_1306" result="shape"/>
</filter>
<filter id="filter1_di_664_1306" x="7.5" y="5" width="24" height="28" filterUnits="userSpaceOnUse" color-interpolation-filters="sRGB">
<feFlood flood-opacity="0" result="BackgroundImageFix"/>
<feColorMatrix in="SourceAlpha" type="matrix" values="0 0 0 0 0 0 0 0 0 0 0 0 0 0 0 0 0 0 127 0" result="hardAlpha"/>
<feOffset dy="4"/>
<feGaussianBlur stdDeviation="2"/>
<feComposite in2="hardAlpha" operator="out"/>
<feColorMatrix type="matrix" values="0 0 0 0 0 0 0 0 0 0 0 0 0 0 0 0 0 0 0.25 0"/>
<feBlend mode="normal" in2="BackgroundImageFix" result="effect1_dropShadow_664_1306"/>
<feBlend mode="normal" in="SourceGraphic" in2="effect1_dropShadow_664_1306" result="shape"/>
<feColorMatrix in="SourceAlpha" type="matrix" values="0 0 0 0 0 0 0 0 0 0 0 0 0 0 0 0 0 0 127 0" result="hardAlpha"/>
<feOffset dy="4"/>
<feGaussianBlur stdDeviation="2"/>
<feComposite in2="hardAlpha" operator="arithmetic" k2="-1" k3="1"/>
<feColorMatrix type="matrix" values="0 0 0 0 0 0 0 0 0 0 0 0 0 0 0 0 0 0 0.25 0"/>
<feBlend mode="normal" in2="shape" result="effect2_innerShadow_664_1306"/>
</filter>
</defs>
</svg>
