<svg width="111" height="133" viewBox="0 0 111 133" fill="none" xmlns="http://www.w3.org/2000/svg">
  <!-- Background Shape -->
  <path d="M110.392 66.2354C110.392 102.816 66.2354 107.301 66.2354 132.471C29.6546 132.471 0 102.816 0 66.2354C0 29.6546 29.6546 0 66.2354 0C66.2354 22.9616 110.392 29.6546 110.392 66.2354Z" fill="#D4D4D4"/>
  
  <!-- Circle -->
  <circle cx="66.2352" cy="66.2354" r="35.3255" fill="#282625"/>

  <!-- Plus Icon - Smaller size and centered -->
  <svg x="49" y="48" width="35" height="35" fill="#FFFFFF" viewBox="0 0 448 512" xmlns="http://www.w3.org/2000/svg">
    <path d="M416 208H272V64c0-17.67-14.33-32-32-32h-32c-17.67 0-32 14.33-32 32v144H32c-17.67 0-32 14.33-32 32v32c0 17.67 14.33 32 32 32h144v144c0 17.67 14.33 32 32 32h32c17.67 0 32-14.33 32-32V304h144c17.67 0 32-14.33 32-32v-32c0-17.67-14.33-32-32-32z"></path>
  </svg>
</svg>
