<svg width="8" height="10" viewBox="0 0 8 10" fill="none" xmlns="http://www.w3.org/2000/svg">
<path d="M2.28245 0.870178V2.0114H3.42368V2.04564C1.48359 2.31954 0 3.99714 0 6.0057C0 8.20827 1.79173 9.99999 3.99429 9.99999C6.19686 9.99999 7.98859 8.20827 7.98859 6.0057C7.98859 5.49215 7.87446 5.01283 7.70328 4.57917L6.66476 5.01283C6.7903 5.34379 6.84736 5.66333 6.84736 6.01711C6.84736 7.60342 5.5806 8.87018 3.99429 8.87018C2.40799 8.87018 1.14123 7.60342 1.14123 6.01711C1.14123 4.43081 2.40799 3.16404 3.99429 3.16404C4.33666 3.16404 4.66762 3.22111 4.99857 3.34664L5.38659 2.27389C5.12411 2.18259 4.85021 2.13694 4.56491 2.09129V2.02282H5.70613V0.88159H2.28245V0.870178ZM7.98859 2.194C7.98859 2.194 3.82311 5.40085 3.60628 5.61768C3.38944 5.84593 3.38944 6.17688 3.60628 6.40513C3.82311 6.63337 4.16548 6.63337 4.39372 6.40513C4.62197 6.17688 8 2.194 8 2.194H7.98859Z" fill="#6F6F6F"/>
</svg>
